<?xml version="1.0" encoding="UTF-8" standalone="no"?>
<svg width="295px" height="295px" viewBox="0 0 295 295" version="1.1" xmlns="http://www.w3.org/2000/svg" xmlns:xlink="http://www.w3.org/1999/xlink" xmlns:sketch="http://www.bohemiancoding.com/sketch/ns">
    <!-- Generator: Sketch 3.5.1 (25234) - http://www.bohemiancoding.com/sketch -->
    <title>menu-button</title>
    <defs></defs>
    <g id="Page-1" stroke="none" stroke-width="1" fill="none" fill-rule="evenodd" sketch:type="MSPage">
        <g id="menu-button" sketch:type="MSLayerGroup" fill="#AADBE8">
            <g id="Group" sketch:type="MSShapeGroup">
                <path d="M147.421,0 C66.133,0 0,66.133 0,147.421 C0,188.389 17.259,227.846 47.351,255.676 C49.784,257.926 53.58,257.777 55.83,255.345 C58.08,252.911 57.932,249.116 55.498,246.866 C27.854,221.3 12,185.054 12,147.421 C12,72.75 72.75,12 147.421,12 C222.092,12 282.842,72.75 282.842,147.421 C282.842,222.092 222.092,282.842 147.421,282.842 C144.108,282.842 141.421,285.529 141.421,288.842 C141.421,292.155 144.108,294.842 147.421,294.842 C228.71,294.842 294.842,228.709 294.842,147.421 C294.842,66.133 228.71,0 147.421,0 L147.421,0 Z" id="Shape"></path>
                <path d="M84.185,90.185 L210.658,90.185 C213.971,90.185 216.658,87.498 216.658,84.185 C216.658,80.872 213.971,78.185 210.658,78.185 L84.185,78.185 C80.872,78.185 78.185,80.872 78.185,84.185 C78.185,87.498 80.872,90.185 84.185,90.185 L84.185,90.185 Z" id="Shape"></path>
                <path d="M84.185,153.421 L210.658,153.421 C213.971,153.421 216.658,150.734 216.658,147.421 C216.658,144.108 213.971,141.421 210.658,141.421 L84.185,141.421 C80.872,141.421 78.185,144.108 78.185,147.421 C78.185,150.734 80.872,153.421 84.185,153.421 L84.185,153.421 Z" id="Shape"></path>
                <path d="M216.658,210.658 C216.658,207.345 213.971,204.658 210.658,204.658 L84.185,204.658 C80.872,204.658 78.185,207.345 78.185,210.658 C78.185,213.971 80.872,216.658 84.185,216.658 L210.658,216.658 C213.971,216.658 216.658,213.971 216.658,210.658 L216.658,210.658 Z" id="Shape"></path>
            </g>
        </g>
    </g>
</svg>
