<?xml version="1.0" encoding="UTF-8" standalone="no"?>
<svg width="436px" height="417px" viewBox="0 0 436 417" version="1.1" xmlns="http://www.w3.org/2000/svg" xmlns:xlink="http://www.w3.org/1999/xlink" xmlns:sketch="http://www.bohemiancoding.com/sketch/ns">
    <!-- Generator: Sketch 3.5.1 (25234) - http://www.bohemiancoding.com/sketch -->
    <title>speech-bubble-message-</title>
    <desc>Created with Sketch.</desc>
    <defs></defs>
    <g id="Page-1" stroke="none" stroke-width="1" fill="none" fill-rule="evenodd" sketch:type="MSPage">
        <g id="speech-bubble-message-" sketch:type="MSLayerGroup" fill="#AADBE8">
            <path d="M75.146,416.343 L75.146,319.989 C27.281,285.43 0,235.745 0,182.603 C0,82.414 97.624,0.901 217.622,0.901 C337.62,0.901 435.244,82.414 435.244,182.602 C435.244,282.788 337.62,364.303 217.622,364.303 C203.404,364.303 189.089,363.114 174.991,360.764 L75.146,416.343 L75.146,416.343 Z M217.622,30.177 C113.768,30.177 29.276,98.556 29.276,182.602 C29.276,228.163 54.29,271.02 97.912,300.17 L104.416,304.516 L104.416,366.538 L169.913,330.086 L175.113,331.059 C189.134,333.689 203.434,335.027 217.621,335.027 C321.477,335.027 405.967,266.651 405.967,182.602 C405.968,98.556 321.479,30.177 217.622,30.177 L217.622,30.177 Z" id="Shape" sketch:type="MSShapeGroup"></path>
        </g>
    </g>
</svg>